<svg xmlns="http://www.w3.org/2000/svg" width="144" height="48" viewBox="0 0 144 48">
  <rect width="48" height="48" rx="8" fill="#355070"/>
  <path d="M10 24 24 11l14 13v13H28v-9h-8v9H10Z" fill="#fff"/>
  <rect x="48" width="48" height="48" rx="8" fill="#2a9d8f"/>
  <circle cx="69" cy="21" r="9" fill="none" stroke="#fff" stroke-width="4"/>
  <path d="m76 28 9 9" stroke="#fff" stroke-width="4" stroke-linecap="round"/>
  <rect x="96" width="48" height="48" rx="8" fill="#b56576"/>
  <path d="M120 12v5m0 14v5m-12-12h5m14 0h5m-20-8 4 4m8 8 4 4m0-16-4 4m-8 8-4 4" stroke="#fff" stroke-width="3" stroke-linecap="round"/>
  <circle cx="120" cy="24" r="6" fill="none" stroke="#fff" stroke-width="3"/>
</svg>
